  <svg width="230.842" height="247.477" viewBox="0 0 216.414 232.01"
                            xmlns="http://www.w3.org/2000/svg">
                            <path style="stroke-width:1.06667"
                                d="M115.057 0C83.418.259 52.984 3.685 35.248 11.83c0 0-35.176 15.735-35.176 69.42 0 12.293-.239 26.992.15 42.58C1.5 176.331 9.848 228.074 58.39 240.922c22.381 5.924 41.598 7.165 57.074 6.314 28.065-1.556 43.82-10.015 43.82-10.015l-.926-20.364s-20.056 6.324-42.58 5.553c-22.316-.765-45.875-2.406-49.484-29.805-.333-2.406-.5-4.98-.5-7.683 0 0 21.907 5.355 49.67 6.627 16.976.778 32.895-.995 49.064-2.924 31.008-3.703 58.007-22.808 61.4-40.266 5.347-27.5 4.907-67.109 4.907-67.109 0-53.685-35.174-69.42-35.174-69.42C177.925 3.685 147.473.26 115.834 0h-.777zM79.25 41.947c13.179 0 23.157 5.066 29.756 15.198l6.416 10.753 6.416-10.753c6.597-10.132 16.576-15.198 29.756-15.198 11.39 0 20.566 4.004 27.574 11.815 6.793 7.81 10.176 18.369 10.176 31.654v65.004H163.59V87.326c0-13.3-5.596-20.05-16.79-20.05-12.375 0-18.577 8.007-18.577 23.841v34.535H102.62V91.117c0-15.834-6.204-23.842-18.58-23.842-11.193 0-16.789 6.751-16.789 20.051v63.094H41.498V85.416c0-13.285 3.383-23.844 10.178-31.654 7.006-7.81 16.183-11.815 27.574-11.815z"
                                transform="scale(.9375)"></path>
                        </svg>